<svg version="1.1" id="Layer_1" xmlns="http://www.w3.org/2000/svg" xmlns:xlink="http://www.w3.org/1999/xlink" x="0px" y="0px" viewBox="0 0 339.4 72.2" style="enable-background:new 0 0 339.4 72.2;" xml:space="preserve">
                   <style type="text/css">
                       .st0{fill:#FFFFFF;}
                       .st1{fill:#FDFEFE;}
                       .st2{fill:#3EC5F3;}
                   </style>
                   <g>
                       <path class="st0" d="M154.9,20.4c4.5,0,7.7,1.6,10.7,4.1c0.4,0.4,0.4,0.9,0,1.2l-1.2,1.2c-0.4,0.4-0.7,0.4-1.2,0
                           c-2.3-2-5.5-3.3-8.5-3.3c-7,0-12.4,5.9-12.4,12.8c0,6.8,5.4,12.7,12.4,12.7c3.9,0,6.1-1.6,8.5-3.3c0.4-0.4,0.8-0.3,1.1-0.1l1.3,1.2
                           c0.4,0.3,0.3,0.9,0,1.2c-3,2.9-6.8,4.3-10.8,4.3c-8.9,0-16-7.1-16-15.9S146.1,20.4,154.9,20.4z"></path>
                       <path class="st0" d="M190.2,23.8h-7.7c-0.5,0-0.8-0.4-0.8-0.8v-1.3c0-0.4,0.4-0.8,0.8-0.8h18.8c0.5,0,0.8,0.4,0.8,0.8V23
                           c0,0.4-0.4,0.8-0.8,0.8h-7.7v27.2c0,0.4-0.4,0.8-0.8,0.8h-1.7c-0.4,0-0.8-0.4-0.8-0.8V23.8z"></path>
                       <path class="st0" d="M220.4,21.7c0-0.4,0.4-0.8,0.8-0.8h1.8c0.4,0,0.8,0.4,0.8,0.8v29.4c0,0.4-0.4,0.8-0.8,0.8h-1.8
                           c-0.4,0-0.8-0.4-0.8-0.8V21.7z"></path>
                       <path class="st0" d="M242,22c-0.3-0.6,0.1-1.2,0.8-1.2h1.8c0.4,0,0.7,0.3,0.8,0.5l11,24.9h0.2l11-24.9c0.1-0.2,0.4-0.5,0.8-0.5h1.8
                           c0.7,0,1,0.6,0.8,1.2l-13.5,29.9c-0.1,0.3-0.4,0.5-0.8,0.5h-0.4c-0.3,0-0.6-0.2-0.8-0.5L242,22z"></path>
                       <path class="st0" d="M289,21.7c0-0.4,0.4-0.8,0.8-0.8h1.8c0.4,0,0.8,0.4,0.8,0.8v29.4c0,0.4-0.4,0.8-0.8,0.8h-1.8
                           c-0.4,0-0.8-0.4-0.8-0.8V21.7z"></path>
                       <path class="st0" d="M123.2,50.8c0.3,0.6-0.1,1.2-0.8,1.2h-1.8c-0.4,0-0.7-0.3-0.8-0.5l-11-24.9h-0.2l-11,24.9
                           c-0.1,0.2-0.4,0.5-0.8,0.5h-1.8c-0.7,0-1-0.6-0.8-1.2l13.5-29.9c0.1-0.3,0.4-0.5,0.8-0.5h0.4c0.3,0,0.6,0.2,0.8,0.5L123.2,50.8z"></path>
                       <path class="st0" d="M339.4,50.8c0.3,0.6-0.1,1.2-0.8,1.2h-1.8c-0.4,0-0.7-0.3-0.8-0.5l-11-24.9h-0.2l-11,24.9
                           c-0.1,0.2-0.4,0.5-0.8,0.5h-1.8c-0.7,0-1-0.6-0.8-1.2L324,20.9c0.1-0.3,0.4-0.5,0.8-0.5h0.4c0.3,0,0.6,0.2,0.8,0.5L339.4,50.8z"></path>
                   </g>
                   <g>
                       <path class="st1" d="M37.7,36.4c0.5,0.9,1.6,1.4,2.8,1.4h2.5c1.3,0,2.4-0.6,2.9-1.5c0.5-0.9,0.4-1.9-0.2-2.7L33.9,14.9l0-0.1l0-0.1
                           c-0.6-0.8-1.6-1.3-2.7-1.3h-0.6c-1.1,0-2.1,0.5-2.7,1.3l0,0l0,0l-19,29.4c-0.5,0.8-0.6,1.8-0.1,2.7c0.5,1,1.6,1.5,2.9,1.5H14
                           c1.1,0,2.2-0.6,2.8-1.4l14-22L37.7,36.4z"></path>
                       <path class="st1" d="M63.9,25.9c-0.5-1-1.6-1.5-2.9-1.5h-2.5c-1.1,0-2.2,0.6-2.8,1.4l-14,22l-6.9-11.3C34.3,35.5,33.2,35,32,35
                           h-2.5c-1.3,0-2.4,0.6-2.9,1.5c-0.5,0.9-0.4,1.9,0.2,2.7l11.8,18.7l0,0.1l0,0.1c0.6,0.8,1.6,1.3,2.7,1.3h0.6c1.1,0,2.1-0.5,2.7-1.3
                           l0,0l0,0l19-29.4C64.3,27.7,64.3,26.7,63.9,25.9z"></path>
                   </g>
                   <path class="st2" d="M36.1,0C16.2,0,0,16.2,0,36.1s16.2,36.1,36.1,36.1C56,72.2,72.2,56,72.2,36.1S56,0,36.1,0z M14,46.5h-2.5
                       c-0.9,0-1.4-0.6-1.1-1.1l19-29.4c0.2-0.3,0.6-0.5,1.1-0.5h0.6c0.4,0,0.9,0.2,1.1,0.5L44,34.7c0.4,0.6-0.1,1.1-1.1,1.1h-2.5
                       c-0.6,0-0.9-0.3-1.1-0.5l-8.5-13.8h-0.3L15,46C14.9,46.2,14.5,46.5,14,46.5z M43,56.9c-0.2,0.3-0.6,0.5-1.1,0.5h-0.6
                       c-0.4,0-0.9-0.2-1.1-0.5L28.5,38.1c-0.4-0.6,0.1-1.1,1.1-1.1H32c0.6,0,0.9,0.3,1.1,0.5l8.5,13.8h0.3l15.6-24.5
                       c0.1-0.2,0.6-0.5,1.1-0.5H61c0.9,0,1.4,0.6,1.1,1.1L43,56.9z"></path>
                   </svg>